<svg width="30" height="30" viewBox="0 0 30 30" fill="none" xmlns="http://www.w3.org/2000/svg">
<path fill-rule="evenodd" clip-rule="evenodd" d="M16.9717 6.3147C16.9902 6.21936 16.9999 6.11475 16.9999 6C16.9999 4.89543 16.1045 4 14.9999 4C13.8953 4 12.9999 4.89543 12.9999 6C12.9999 6.11475 13.0095 6.21936 13.0281 6.3147C11.562 6.78896 10.1668 7.79097 8.84473 9.26418C8.51538 9.63117 8.33322 10.1069 8.33322 10.6V17.6454L7.18063 20.1692C6.57573 21.4937 7.54377 23 8.99989 23H11.1259C11.5699 24.7252 13.136 26 14.9999 26C16.8637 26 18.4298 24.7252 18.8739 23H20.9999C22.456 23 23.424 21.4937 22.8191 20.1692L21.6666 17.6454V10.6C21.6666 10.1069 21.4844 9.63117 21.155 9.26418C19.8329 7.79097 18.4378 6.78896 16.9717 6.3147ZM14.9999 24C14.2596 24 13.6133 23.5978 13.2675 23H16.7323C16.3865 23.5978 15.7402 24 14.9999 24ZM10.3332 17V10.6C11.8888 8.86667 13.4443 8 14.9999 8C16.5554 8 18.111 8.86667 19.6666 10.6V17H10.3332ZM20.0865 19L20.9999 21H8.99989L9.91327 19H20.0865Z" fill="black"/>
<mask id="mask0_0_664" style="mask-type:alpha" maskUnits="userSpaceOnUse" x="6" y="4" width="18" height="22">
<path fill-rule="evenodd" clip-rule="evenodd" d="M16.9717 6.3147C16.9902 6.21936 16.9999 6.11475 16.9999 6C16.9999 4.89543 16.1045 4 14.9999 4C13.8953 4 12.9999 4.89543 12.9999 6C12.9999 6.11475 13.0095 6.21936 13.0281 6.3147C11.562 6.78896 10.1668 7.79097 8.84473 9.26418C8.51538 9.63117 8.33322 10.1069 8.33322 10.6V17.6454L7.18063 20.1692C6.57573 21.4937 7.54377 23 8.99989 23H11.1259C11.5699 24.7252 13.136 26 14.9999 26C16.8637 26 18.4298 24.7252 18.8739 23H20.9999C22.456 23 23.424 21.4937 22.8191 20.1692L21.6666 17.6454V10.6C21.6666 10.1069 21.4844 9.63117 21.155 9.26418C19.8329 7.79097 18.4378 6.78896 16.9717 6.3147ZM14.9999 24C14.2596 24 13.6133 23.5978 13.2675 23H16.7323C16.3865 23.5978 15.7402 24 14.9999 24ZM10.3332 17V10.6C11.8888 8.86667 13.4443 8 14.9999 8C16.5554 8 18.111 8.86667 19.6666 10.6V17H10.3332ZM20.0865 19L20.9999 21H8.99989L9.91327 19H20.0865Z" fill="white"/>
</mask>
<g mask="url(#mask0_0_664)">
<rect width="30" height="30" fill="#0880AE"/>
</g>
</svg>
