<svg width="30" height="30" viewBox="0 0 30 30" fill="none" xmlns="http://www.w3.org/2000/svg">
<path fill-rule="evenodd" clip-rule="evenodd" d="M12 9C12 9.55228 11.5523 10 11 10C10.4477 10 10 9.55228 10 9V6C10 5.44772 10.4477 5 11 5C11.5523 5 12 5.44772 12 6V9ZM7 9H9V7H7C5.89543 7 5 7.89543 5 9V12V14V23C5 24.1046 5.89543 25 7 25H23C24.1046 25 25 24.1046 25 23V14V12V9C25 7.89543 24.1046 7 23 7H21V9H23V12H7V9ZM7 14V23H23V14H7ZM19 10C19.5523 10 20 9.55228 20 9V6C20 5.44772 19.5523 5 19 5C18.4477 5 18 5.44772 18 6V9C18 9.55228 18.4477 10 19 10ZM13 7H17V9H13V7ZM14 17V15H12V17H14ZM18 15V17H16V15H18ZM22 17V15H20V17H22ZM10 19V21H8V19H10ZM14 21V19H12V21H14ZM18 19V21H16V19H18ZM22 21V19H20V21H22Z" fill="black"/>
<mask id="mask0_0_668" style="mask-type:alpha" maskUnits="userSpaceOnUse" x="5" y="5" width="20" height="20">
<path fill-rule="evenodd" clip-rule="evenodd" d="M12 9C12 9.55228 11.5523 10 11 10C10.4477 10 10 9.55228 10 9V6C10 5.44772 10.4477 5 11 5C11.5523 5 12 5.44772 12 6V9ZM7 9H9V7H7C5.89543 7 5 7.89543 5 9V12V14V23C5 24.1046 5.89543 25 7 25H23C24.1046 25 25 24.1046 25 23V14V12V9C25 7.89543 24.1046 7 23 7H21V9H23V12H7V9ZM7 14V23H23V14H7ZM19 10C19.5523 10 20 9.55228 20 9V6C20 5.44772 19.5523 5 19 5C18.4477 5 18 5.44772 18 6V9C18 9.55228 18.4477 10 19 10ZM13 7H17V9H13V7ZM14 17V15H12V17H14ZM18 15V17H16V15H18ZM22 17V15H20V17H22ZM10 19V21H8V19H10ZM14 21V19H12V21H14ZM18 19V21H16V19H18ZM22 21V19H20V21H22Z" fill="white"/>
</mask>
<g mask="url(#mask0_0_668)">
<rect width="30" height="30" fill="#0880AE"/>
</g>
</svg>
