<svg width="30" height="30" viewBox="0 0 30 30" fill="none" xmlns="http://www.w3.org/2000/svg">
<path fill-rule="evenodd" clip-rule="evenodd" d="M24 7H6C4.89543 7 4 7.89543 4 9V21C4 22.1046 4.89543 23 6 23H24C25.1046 23 26 22.1046 26 21V9C26 7.89543 25.1046 7 24 7ZM6 21V9H24V21H6ZM15 16C15.5523 16 16 15.5523 16 15C16 14.4477 15.5523 14 15 14C14.4477 14 14 14.4477 14 15C14 15.5523 14.4477 16 15 16ZM12 15C12 16.6569 13.3431 18 15 18C16.6569 18 18 16.6569 18 15C18 13.3431 16.6569 12 15 12C13.3431 12 12 13.3431 12 15ZM10 18C10.5523 18 11 18.4477 11 19C11 19.5523 10.5523 20 10 20H8C7.44772 20 7 19.5523 7 19C7 18.4477 7.44772 18 8 18H10ZM23 11C23 10.4477 22.5523 10 22 10H20C19.4477 10 19 10.4477 19 11C19 11.5523 19.4477 12 20 12H22C22.5523 12 23 11.5523 23 11Z" fill="black"/>
<mask id="mask0_0_681" style="mask-type:alpha" maskUnits="userSpaceOnUse" x="4" y="7" width="22" height="16">
<path fill-rule="evenodd" clip-rule="evenodd" d="M24 7H6C4.89543 7 4 7.89543 4 9V21C4 22.1046 4.89543 23 6 23H24C25.1046 23 26 22.1046 26 21V9C26 7.89543 25.1046 7 24 7ZM6 21V9H24V21H6ZM15 16C15.5523 16 16 15.5523 16 15C16 14.4477 15.5523 14 15 14C14.4477 14 14 14.4477 14 15C14 15.5523 14.4477 16 15 16ZM12 15C12 16.6569 13.3431 18 15 18C16.6569 18 18 16.6569 18 15C18 13.3431 16.6569 12 15 12C13.3431 12 12 13.3431 12 15ZM10 18C10.5523 18 11 18.4477 11 19C11 19.5523 10.5523 20 10 20H8C7.44772 20 7 19.5523 7 19C7 18.4477 7.44772 18 8 18H10ZM23 11C23 10.4477 22.5523 10 22 10H20C19.4477 10 19 10.4477 19 11C19 11.5523 19.4477 12 20 12H22C22.5523 12 23 11.5523 23 11Z" fill="white"/>
</mask>
<g mask="url(#mask0_0_681)">
<rect width="30" height="30" fill="#0880AE"/>
</g>
</svg>
