<svg width="30" height="30" viewBox="0 0 30 30" fill="none" xmlns="http://www.w3.org/2000/svg">
<path fill-rule="evenodd" clip-rule="evenodd" d="M15.8741 5.51436C15.4931 4.82855 14.5068 4.82855 14.1258 5.51436L4.12582 23.5144C3.75552 24.1809 4.23749 25 4.99997 25H25C25.7625 25 26.2444 24.1809 25.8741 23.5144L15.8741 5.51436ZM6.69949 23L15 8.05913L23.3005 23H6.69949ZM14 13C14 12.4477 14.4477 12 15 12C15.5523 12 16 12.4477 16 13V17C16 17.5523 15.5523 18 15 18C14.4477 18 14 17.5523 14 17V13ZM15 19C14.4477 19 14 19.4477 14 20V21C14 21.5523 14.4477 22 15 22C15.5523 22 16 21.5523 16 21V20C16 19.4477 15.5523 19 15 19Z" fill="black"/>
<mask id="mask0_0_656" style="mask-type:alpha" maskUnits="userSpaceOnUse" x="3" y="5" width="24" height="20">
<path fill-rule="evenodd" clip-rule="evenodd" d="M15.8741 5.51436C15.4931 4.82855 14.5068 4.82855 14.1258 5.51436L4.12582 23.5144C3.75552 24.1809 4.23749 25 4.99997 25H25C25.7625 25 26.2444 24.1809 25.8741 23.5144L15.8741 5.51436ZM6.69949 23L15 8.05913L23.3005 23H6.69949ZM14 13C14 12.4477 14.4477 12 15 12C15.5523 12 16 12.4477 16 13V17C16 17.5523 15.5523 18 15 18C14.4477 18 14 17.5523 14 17V13ZM15 19C14.4477 19 14 19.4477 14 20V21C14 21.5523 14.4477 22 15 22C15.5523 22 16 21.5523 16 21V20C16 19.4477 15.5523 19 15 19Z" fill="white"/>
</mask>
<g mask="url(#mask0_0_656)">
<rect width="30" height="30" fill="#0880AE"/>
</g>
</svg>
