<svg width="30" height="30" viewBox="0 0 30 30" fill="none" xmlns="http://www.w3.org/2000/svg">
<path fill-rule="evenodd" clip-rule="evenodd" d="M18 12C16.1334 12 14.5654 10.7215 14.1241 8.99237C14.0834 8.99741 14.042 9 14 9H6C5.44772 9 5 8.55228 5 8C5 7.44772 5.44772 7 6 7H14C14.042 7 14.0834 7.00259 14.1241 7.00763C14.5654 5.27853 16.1334 4 18 4C19.8638 4 21.4299 5.27477 21.874 7H24C24.5523 7 25 7.44772 25 8C25 8.55228 24.5523 9 24 9H21.874C21.4299 10.7252 19.8638 12 18 12ZM5 15C5 14.4477 5.44772 14 6 14H7C7.04201 14 7.08342 14.0026 7.12407 14.0076C7.56545 12.2785 9.13342 11 11 11C12.8638 11 14.4299 12.2748 14.874 14H24C24.5523 14 25 14.4477 25 15C25 15.5523 24.5523 16 24 16H14.874C14.4299 17.7252 12.8638 19 11 19C9.13342 19 7.56545 17.7215 7.12407 15.9924C7.08342 15.9974 7.04201 16 7 16H6C5.44772 16 5 15.5523 5 15ZM5 22C5 21.4477 5.44772 21 6 21H13C13.042 21 13.0834 21.0026 13.1241 21.0076C13.5655 19.2785 15.1334 18 17 18C18.8666 18 20.4345 19.2785 20.8759 21.0076C20.9166 21.0026 20.958 21 21 21H24C24.5523 21 25 21.4477 25 22C25 22.5523 24.5523 23 24 23H21C20.958 23 20.9166 22.9974 20.8759 22.9924C20.4345 24.7215 18.8666 26 17 26C15.1334 26 13.5655 24.7215 13.1241 22.9924C13.0834 22.9974 13.042 23 13 23H6C5.44772 23 5 22.5523 5 22ZM20 8C20 9.10457 19.1046 10 18 10C16.8954 10 16 9.10457 16 8C16 6.89543 16.8954 6 18 6C19.1046 6 20 6.89543 20 8ZM19 22C19 23.1046 18.1046 24 17 24C15.8954 24 15 23.1046 15 22C15 20.8954 15.8954 20 17 20C18.1046 20 19 20.8954 19 22ZM13 15C13 16.1046 12.1046 17 11 17C9.89543 17 9 16.1046 9 15C9 13.8954 9.89543 13 11 13C12.1046 13 13 13.8954 13 15Z" fill="black"/>
<mask id="mask0_0_684" style="mask-type:alpha" maskUnits="userSpaceOnUse" x="5" y="4" width="20" height="22">
<path fill-rule="evenodd" clip-rule="evenodd" d="M18 12C16.1334 12 14.5654 10.7215 14.1241 8.99237C14.0834 8.99741 14.042 9 14 9H6C5.44772 9 5 8.55228 5 8C5 7.44772 5.44772 7 6 7H14C14.042 7 14.0834 7.00259 14.1241 7.00763C14.5654 5.27853 16.1334 4 18 4C19.8638 4 21.4299 5.27477 21.874 7H24C24.5523 7 25 7.44772 25 8C25 8.55228 24.5523 9 24 9H21.874C21.4299 10.7252 19.8638 12 18 12ZM5 15C5 14.4477 5.44772 14 6 14H7C7.04201 14 7.08342 14.0026 7.12407 14.0076C7.56545 12.2785 9.13342 11 11 11C12.8638 11 14.4299 12.2748 14.874 14H24C24.5523 14 25 14.4477 25 15C25 15.5523 24.5523 16 24 16H14.874C14.4299 17.7252 12.8638 19 11 19C9.13342 19 7.56545 17.7215 7.12407 15.9924C7.08342 15.9974 7.04201 16 7 16H6C5.44772 16 5 15.5523 5 15ZM5 22C5 21.4477 5.44772 21 6 21H13C13.042 21 13.0834 21.0026 13.1241 21.0076C13.5655 19.2785 15.1334 18 17 18C18.8666 18 20.4345 19.2785 20.8759 21.0076C20.9166 21.0026 20.958 21 21 21H24C24.5523 21 25 21.4477 25 22C25 22.5523 24.5523 23 24 23H21C20.958 23 20.9166 22.9974 20.8759 22.9924C20.4345 24.7215 18.8666 26 17 26C15.1334 26 13.5655 24.7215 13.1241 22.9924C13.0834 22.9974 13.042 23 13 23H6C5.44772 23 5 22.5523 5 22ZM20 8C20 9.10457 19.1046 10 18 10C16.8954 10 16 9.10457 16 8C16 6.89543 16.8954 6 18 6C19.1046 6 20 6.89543 20 8ZM19 22C19 23.1046 18.1046 24 17 24C15.8954 24 15 23.1046 15 22C15 20.8954 15.8954 20 17 20C18.1046 20 19 20.8954 19 22ZM13 15C13 16.1046 12.1046 17 11 17C9.89543 17 9 16.1046 9 15C9 13.8954 9.89543 13 11 13C12.1046 13 13 13.8954 13 15Z" fill="white"/>
</mask>
<g mask="url(#mask0_0_684)">
<rect width="30" height="30" fill="#0880AE"/>
</g>
</svg>
