<svg width="30" height="30" viewBox="0 0 30 30" fill="none" xmlns="http://www.w3.org/2000/svg">
<path fill-rule="evenodd" clip-rule="evenodd" d="M6 6H24C25.1046 6 26 6.89543 26 8V22C26 23.1046 25.1046 24 24 24H6C4.89543 24 4 23.1046 4 22V8C4 6.89543 4.89543 6 6 6ZM23.1106 7.50073C23.5575 7.17625 24.1828 7.2755 24.5073 7.72241C24.8318 8.16932 24.7326 8.79466 24.2856 9.11914L24 9.38332V22H6V9.31031L5.41235 8.7561C4.96812 8.42796 4.87402 7.80183 5.20216 7.3576C5.53031 6.91337 6.15644 6.81926 6.60067 7.14741L7.49111 8H22.5791L23.1106 7.50073Z" fill="black"/>
<mask id="mask0_0_700" style="mask-type:alpha" maskUnits="userSpaceOnUse" x="4" y="6" width="22" height="18">
<path fill-rule="evenodd" clip-rule="evenodd" d="M6 6H24C25.1046 6 26 6.89543 26 8V22C26 23.1046 25.1046 24 24 24H6C4.89543 24 4 23.1046 4 22V8C4 6.89543 4.89543 6 6 6ZM23.1106 7.50073C23.5575 7.17625 24.1828 7.2755 24.5073 7.72241C24.8318 8.16932 24.7326 8.79466 24.2856 9.11914L24 9.38332V22H6V9.31031L5.41235 8.7561C4.96812 8.42796 4.87402 7.80183 5.20216 7.3576C5.53031 6.91337 6.15644 6.81926 6.60067 7.14741L7.49111 8H22.5791L23.1106 7.50073Z" fill="white"/>
</mask>
<g mask="url(#mask0_0_700)">
<rect width="30" height="30" fill="#0880AE"/>
</g>
</svg>
