<svg width="30" height="30" viewBox="0 0 30 30" fill="none" xmlns="http://www.w3.org/2000/svg">
<path fill-rule="evenodd" clip-rule="evenodd" d="M20 3H10C8.89543 3 8 3.97683 8 5.18182V24.8182C8 26.0232 8.89543 27 10 27H20C21.1046 27 22 26.0232 22 24.8182V5.18182C22 3.97683 21.1046 3 20 3ZM10 25V5H20V25H10ZM15 24C15.5523 24 16 23.5523 16 23C16 22.4477 15.5523 22 15 22C14.4477 22 14 22.4477 14 23C14 23.5523 14.4477 24 15 24ZM13.5 7C13.5 7.27614 13.7239 7.5 14 7.5H16C16.2761 7.5 16.5 7.27614 16.5 7C16.5 6.72386 16.2761 6.5 16 6.5H14C13.7239 6.5 13.5 6.72386 13.5 7Z" fill="black"/>
<mask id="mask0_0_703" style="mask-type:alpha" maskUnits="userSpaceOnUse" x="8" y="3" width="14" height="24">
<path fill-rule="evenodd" clip-rule="evenodd" d="M20 3H10C8.89543 3 8 3.97683 8 5.18182V24.8182C8 26.0232 8.89543 27 10 27H20C21.1046 27 22 26.0232 22 24.8182V5.18182C22 3.97683 21.1046 3 20 3ZM10 25V5H20V25H10ZM15 24C15.5523 24 16 23.5523 16 23C16 22.4477 15.5523 22 15 22C14.4477 22 14 22.4477 14 23C14 23.5523 14.4477 24 15 24ZM13.5 7C13.5 7.27614 13.7239 7.5 14 7.5H16C16.2761 7.5 16.5 7.27614 16.5 7C16.5 6.72386 16.2761 6.5 16 6.5H14C13.7239 6.5 13.5 6.72386 13.5 7Z" fill="white"/>
</mask>
<g mask="url(#mask0_0_703)">
<rect width="30" height="30" fill="#0880AE"/>
</g>
</svg>
