<svg width="30" height="30" viewBox="0 0 30 30" fill="none" xmlns="http://www.w3.org/2000/svg">
<path fill-rule="evenodd" clip-rule="evenodd" d="M22 3.87494C21.2774 3.87494 20.6443 4.25817 20.2928 4.83247L19.9014 4.44802C19.1284 3.68886 17.8915 3.68325 17.1116 4.43536L16.7396 4.79411L16.4317 4.4784C15.6843 3.71222 14.4662 3.67026 13.6678 4.38319L13.2124 4.78994L12.9921 4.54315C12.2136 3.67094 10.8561 3.64957 10.0506 4.49685L9.76864 4.79337L9.37137 4.41914C8.09524 3.21703 6 4.12178 6 5.87494V23.8749C6 24.9795 6.89543 25.8749 8 25.8749H22C23.1046 25.8749 24 24.9795 24 23.8749V5.87494C24 4.77037 23.1046 3.87494 22 3.87494ZM18.5 5.87494L20.2709 7.6142L22 5.87494V18.8749H8V5.87494L9.84634 7.6142L11.5 5.87494L13.0524 7.6142L15 5.87494L16.6966 7.6142L18.5 5.87494ZM8 23.8749V20.8749H22V23.8749H8ZM10 10.8749C10 11.4272 10.4477 11.8749 11 11.8749H14.3326C14.8849 11.8749 15.3326 11.4272 15.3326 10.8749C15.3326 10.3227 14.8849 9.87494 14.3326 9.87494H11C10.4477 9.87494 10 10.3227 10 10.8749Z" fill="black"/>
<mask id="mask0_0_705" style="mask-type:alpha" maskUnits="userSpaceOnUse" x="6" y="3" width="18" height="23">
<path fill-rule="evenodd" clip-rule="evenodd" d="M22 3.87494C21.2774 3.87494 20.6443 4.25817 20.2928 4.83247L19.9014 4.44802C19.1284 3.68886 17.8915 3.68325 17.1116 4.43536L16.7396 4.79411L16.4317 4.4784C15.6843 3.71222 14.4662 3.67026 13.6678 4.38319L13.2124 4.78994L12.9921 4.54315C12.2136 3.67094 10.8561 3.64957 10.0506 4.49685L9.76864 4.79337L9.37137 4.41914C8.09524 3.21703 6 4.12178 6 5.87494V23.8749C6 24.9795 6.89543 25.8749 8 25.8749H22C23.1046 25.8749 24 24.9795 24 23.8749V5.87494C24 4.77037 23.1046 3.87494 22 3.87494ZM18.5 5.87494L20.2709 7.6142L22 5.87494V18.8749H8V5.87494L9.84634 7.6142L11.5 5.87494L13.0524 7.6142L15 5.87494L16.6966 7.6142L18.5 5.87494ZM8 23.8749V20.8749H22V23.8749H8ZM10 10.8749C10 11.4272 10.4477 11.8749 11 11.8749H14.3326C14.8849 11.8749 15.3326 11.4272 15.3326 10.8749C15.3326 10.3227 14.8849 9.87494 14.3326 9.87494H11C10.4477 9.87494 10 10.3227 10 10.8749Z" fill="white"/>
</mask>
<g mask="url(#mask0_0_705)">
<rect width="30" height="30" fill="#0880AE"/>
</g>
</svg>
