<svg width="30" height="30" viewBox="0 0 30 30" fill="none" xmlns="http://www.w3.org/2000/svg">
<path fill-rule="evenodd" clip-rule="evenodd" d="M21 3H9C7.89543 3 7 3.97683 7 5.18182V24.8182C7 26.0232 7.89543 27 9 27H21C22.1046 27 23 26.0232 23 24.8182V5.18182C23 3.97683 22.1046 3 21 3ZM9 25V5H21V25H9ZM15 24C15.5523 24 16 23.5523 16 23C16 22.4477 15.5523 22 15 22C14.4477 22 14 22.4477 14 23C14 23.5523 14.4477 24 15 24ZM13 7.5C13 7.77614 13.2239 8 13.5 8H16.5C16.7761 8 17 7.77614 17 7.5C17 7.22386 16.7761 7 16.5 7H13.5C13.2239 7 13 7.22386 13 7.5Z" fill="black"/>
<mask id="mask0_0_711" style="mask-type:alpha" maskUnits="userSpaceOnUse" x="7" y="3" width="16" height="24">
<path fill-rule="evenodd" clip-rule="evenodd" d="M21 3H9C7.89543 3 7 3.97683 7 5.18182V24.8182C7 26.0232 7.89543 27 9 27H21C22.1046 27 23 26.0232 23 24.8182V5.18182C23 3.97683 22.1046 3 21 3ZM9 25V5H21V25H9ZM15 24C15.5523 24 16 23.5523 16 23C16 22.4477 15.5523 22 15 22C14.4477 22 14 22.4477 14 23C14 23.5523 14.4477 24 15 24ZM13 7.5C13 7.77614 13.2239 8 13.5 8H16.5C16.7761 8 17 7.77614 17 7.5C17 7.22386 16.7761 7 16.5 7H13.5C13.2239 7 13 7.22386 13 7.5Z" fill="white"/>
</mask>
<g mask="url(#mask0_0_711)">
<rect width="30" height="30" fill="#0880AE"/>
</g>
</svg>
