<svg width="30" height="30" viewBox="0 0 30 30" fill="none" xmlns="http://www.w3.org/2000/svg">
<path fill-rule="evenodd" clip-rule="evenodd" d="M15 4C17.7614 4 20 6.23858 20 9V10H21C22.1046 10 23 10.8954 23 12V24C23 25.1046 22.1046 26 21 26H9C7.89543 26 7 25.1046 7 24V12C7 10.8954 7.89543 10 9 10H10V9C10 6.23858 12.2386 4 15 4ZM9 12H10H20H21V20H9V12ZM9 22V24H21V22H9ZM18 9V10H12V9C12 7.34315 13.3431 6 15 6C16.6569 6 18 7.34315 18 9Z" fill="black"/>
<mask id="mask0_0_662" style="mask-type:alpha" maskUnits="userSpaceOnUse" x="7" y="4" width="16" height="22">
<path fill-rule="evenodd" clip-rule="evenodd" d="M15 4C17.7614 4 20 6.23858 20 9V10H21C22.1046 10 23 10.8954 23 12V24C23 25.1046 22.1046 26 21 26H9C7.89543 26 7 25.1046 7 24V12C7 10.8954 7.89543 10 9 10H10V9C10 6.23858 12.2386 4 15 4ZM9 12H10H20H21V20H9V12ZM9 22V24H21V22H9ZM18 9V10H12V9C12 7.34315 13.3431 6 15 6C16.6569 6 18 7.34315 18 9Z" fill="white"/>
</mask>
<g mask="url(#mask0_0_662)">
<rect width="30" height="30" fill="#0880AE"/>
</g>
</svg>
