<svg width="30" height="30" viewBox="0 0 30 30" fill="none" xmlns="http://www.w3.org/2000/svg">
<path fill-rule="evenodd" clip-rule="evenodd" d="M5 11V23C5 24.1046 5.89543 25 7 25H23C24.1046 25 25 24.1046 25 23V11C25 10.5673 24.8596 10.1462 24.6 9.8L21.6 5.8C21.2223 5.29639 20.6295 5 20 5H10C9.37049 5 8.77771 5.29639 8.4 5.8L5.4 9.8C5.14036 10.1462 5 10.5673 5 11ZM23 23H7V13H11V19C11 19.5523 11.4477 20 12 20H18C18.5523 20 19 19.5523 19 19V13H23V23ZM17 13V18H13V13H17ZM23 11H7L10 7H20L23 11Z" fill="black"/>
<mask id="mask0_0_666" style="mask-type:alpha" maskUnits="userSpaceOnUse" x="5" y="5" width="20" height="20">
<path fill-rule="evenodd" clip-rule="evenodd" d="M5 11V23C5 24.1046 5.89543 25 7 25H23C24.1046 25 25 24.1046 25 23V11C25 10.5673 24.8596 10.1462 24.6 9.8L21.6 5.8C21.2223 5.29639 20.6295 5 20 5H10C9.37049 5 8.77771 5.29639 8.4 5.8L5.4 9.8C5.14036 10.1462 5 10.5673 5 11ZM23 23H7V13H11V19C11 19.5523 11.4477 20 12 20H18C18.5523 20 19 19.5523 19 19V13H23V23ZM17 13V18H13V13H17ZM23 11H7L10 7H20L23 11Z" fill="white"/>
</mask>
<g mask="url(#mask0_0_666)">
<rect width="30" height="30" fill="#0880AE"/>
</g>
</svg>
