<svg width="30" height="30" viewBox="0 0 30 30" fill="none" xmlns="http://www.w3.org/2000/svg">
<path fill-rule="evenodd" clip-rule="evenodd" d="M18.7669 19.3408L22.8299 8H25.0109C25.5567 8 25.9993 7.55228 25.9993 7C25.9993 6.44772 25.5567 6 25.0109 6H22.1369C21.7209 6 21.3494 6.26353 21.2076 6.65923L18.9338 13.0059C18.8985 13.002 18.8625 13 18.8261 13H7.0187L6.35977 11H13.8841C14.43 11 14.8725 10.5523 14.8725 10C14.8725 9.44772 14.43 9 13.8841 9H4.98843C4.31379 9 3.83741 9.6687 4.05075 10.3162L7.01596 19.3162C7.1505 19.7246 7.5282 20 7.95364 20H17.8377C18.2537 20 18.6252 19.7365 18.7669 19.3408ZM8.66605 18L7.67764 15H18.2194L17.1446 18H8.66605ZM9.93045 25C11.0222 25 11.9073 24.1046 11.9073 23C11.9073 21.8954 11.0222 21 9.93045 21C8.83869 21 7.95364 21.8954 7.95364 23C7.95364 24.1046 8.83869 25 9.93045 25ZM18.8261 23C18.8261 24.1046 17.941 25 16.8493 25C15.7575 25 14.8725 24.1046 14.8725 23C14.8725 21.8954 15.7575 21 16.8493 21C17.941 21 18.8261 21.8954 18.8261 23Z" fill="black"/>
<mask id="mask0_0_671" style="mask-type:alpha" maskUnits="userSpaceOnUse" x="3" y="6" width="23" height="19">
<path fill-rule="evenodd" clip-rule="evenodd" d="M18.7669 19.3408L22.8299 8H25.0109C25.5567 8 25.9993 7.55228 25.9993 7C25.9993 6.44772 25.5567 6 25.0109 6H22.1369C21.7209 6 21.3494 6.26353 21.2076 6.65923L18.9338 13.0059C18.8985 13.002 18.8625 13 18.8261 13H7.0187L6.35977 11H13.8841C14.43 11 14.8725 10.5523 14.8725 10C14.8725 9.44772 14.43 9 13.8841 9H4.98843C4.31379 9 3.83741 9.6687 4.05075 10.3162L7.01596 19.3162C7.1505 19.7246 7.5282 20 7.95364 20H17.8377C18.2537 20 18.6252 19.7365 18.7669 19.3408ZM8.66605 18L7.67764 15H18.2194L17.1446 18H8.66605ZM9.93045 25C11.0222 25 11.9073 24.1046 11.9073 23C11.9073 21.8954 11.0222 21 9.93045 21C8.83869 21 7.95364 21.8954 7.95364 23C7.95364 24.1046 8.83869 25 9.93045 25ZM18.8261 23C18.8261 24.1046 17.941 25 16.8493 25C15.7575 25 14.8725 24.1046 14.8725 23C14.8725 21.8954 15.7575 21 16.8493 21C17.941 21 18.8261 21.8954 18.8261 23Z" fill="white"/>
</mask>
<g mask="url(#mask0_0_671)">
<rect width="30" height="30" fill="#0880AE"/>
</g>
</svg>
