<svg width="30" height="30" viewBox="0 0 30 30" fill="none" xmlns="http://www.w3.org/2000/svg">
<path fill-rule="evenodd" clip-rule="evenodd" d="M18.7666 4H8C6.89543 4 6 4.89543 6 6V24C6 25.1046 6.89543 26 8 26H22C23.1046 26 24 25.1046 24 24V8.87256C24 8.30109 23.7555 7.75692 23.3283 7.37738L20.0949 4.50482C19.7289 4.17962 19.2562 4 18.7666 4ZM8 20V6H17V11.05C17 11.6023 17.4477 12.05 18 12.05H20.4871C21.0393 12.05 21.4871 11.6023 21.4871 11.05C21.4871 10.4978 21.0393 10.05 20.4871 10.05H19V6.20735L22 8.87256V20H8ZM8 22V24H22V22H8Z" fill="black"/>
<mask id="mask0_0_685" style="mask-type:alpha" maskUnits="userSpaceOnUse" x="6" y="4" width="18" height="22">
<path fill-rule="evenodd" clip-rule="evenodd" d="M18.7666 4H8C6.89543 4 6 4.89543 6 6V24C6 25.1046 6.89543 26 8 26H22C23.1046 26 24 25.1046 24 24V8.87256C24 8.30109 23.7555 7.75692 23.3283 7.37738L20.0949 4.50482C19.7289 4.17962 19.2562 4 18.7666 4ZM8 20V6H17V11.05C17 11.6023 17.4477 12.05 18 12.05H20.4871C21.0393 12.05 21.4871 11.6023 21.4871 11.05C21.4871 10.4978 21.0393 10.05 20.4871 10.05H19V6.20735L22 8.87256V20H8ZM8 22V24H22V22H8Z" fill="white"/>
</mask>
<g mask="url(#mask0_0_685)">
<rect width="30" height="30" fill="#0880AE"/>
</g>
</svg>
