<svg width="30" height="30" viewBox="0 0 30 30" fill="none" xmlns="http://www.w3.org/2000/svg">
<path fill-rule="evenodd" clip-rule="evenodd" d="M15 5H14C12.8954 5 12 5.89543 12 7V23H11V12C11 10.8954 10.1046 10 9 10H8C6.89543 10 6 10.8954 6 12V23H5C4.44772 23 4 23.4477 4 24C4 24.5523 4.44772 25 5 25H8H9H14H15H20H21H25C25.5523 25 26 24.5523 26 24C26 23.4477 25.5523 23 25 23H23V15C23 13.8954 22.1046 13 21 13H20C18.8954 13 18 13.8954 18 15V23H17V7C17 5.89543 16.1046 5 15 5ZM14 7V23H15V7H14ZM8 12V23H9V12H8ZM20 23V15H21V23H20Z" fill="black"/>
<mask id="mask0_0_690" style="mask-type:alpha" maskUnits="userSpaceOnUse" x="4" y="5" width="22" height="20">
<path fill-rule="evenodd" clip-rule="evenodd" d="M15 5H14C12.8954 5 12 5.89543 12 7V23H11V12C11 10.8954 10.1046 10 9 10H8C6.89543 10 6 10.8954 6 12V23H5C4.44772 23 4 23.4477 4 24C4 24.5523 4.44772 25 5 25H8H9H14H15H20H21H25C25.5523 25 26 24.5523 26 24C26 23.4477 25.5523 23 25 23H23V15C23 13.8954 22.1046 13 21 13H20C18.8954 13 18 13.8954 18 15V23H17V7C17 5.89543 16.1046 5 15 5ZM14 7V23H15V7H14ZM8 12V23H9V12H8ZM20 23V15H21V23H20Z" fill="white"/>
</mask>
<g mask="url(#mask0_0_690)">
<rect width="30" height="30" fill="#0880AE"/>
</g>
</svg>
