<svg width="30" height="30" viewBox="0 0 30 30" fill="none" xmlns="http://www.w3.org/2000/svg">
<path fill-rule="evenodd" clip-rule="evenodd" d="M19.2746 4C19.1446 4 19.0149 4.00371 18.8856 4.01112C17.8272 4.07176 17 4.94771 17 6.00784V10.6981C17 11.8027 17.8954 12.6981 19 12.6981H24C25.109 12.6981 26.0063 11.7958 26 10.6868C25.979 6.98852 22.9745 4 19.2746 4ZM19 10.6981V6.00784C19.0909 6.00264 19.1824 6 19.2746 6C21.8753 6 23.9853 8.10091 24 10.6981H19ZM16 14H20.9836C22.0372 14 22.9101 14.8173 22.9793 15.8686C22.9931 16.0783 23 16.2888 23 16.5C23 21.7467 18.7467 26 13.5 26C8.25329 26 4 21.7467 4 16.5C4 11.2533 8.25329 7 13.5 7C13.7112 7 13.9217 7.00692 14.1314 7.02072C15.1827 7.08992 16 7.96283 16 9.0164V14ZM13.5 9C13.668 9 13.8347 9.00552 14 9.0164V16H20.9836C20.9945 16.1653 21 16.332 21 16.5C21 20.6421 17.6421 24 13.5 24C9.35786 24 6 20.6421 6 16.5C6 12.3579 9.35786 9 13.5 9Z" fill="black"/>
<mask id="mask0_0_691" style="mask-type:alpha" maskUnits="userSpaceOnUse" x="4" y="4" width="22" height="22">
<path fill-rule="evenodd" clip-rule="evenodd" d="M19.2746 4C19.1446 4 19.0149 4.00371 18.8856 4.01112C17.8272 4.07176 17 4.94771 17 6.00784V10.6981C17 11.8027 17.8954 12.6981 19 12.6981H24C25.109 12.6981 26.0063 11.7958 26 10.6868C25.979 6.98852 22.9745 4 19.2746 4ZM19 10.6981V6.00784C19.0909 6.00264 19.1824 6 19.2746 6C21.8753 6 23.9853 8.10091 24 10.6981H19ZM16 14H20.9836C22.0372 14 22.9101 14.8173 22.9793 15.8686C22.9931 16.0783 23 16.2888 23 16.5C23 21.7467 18.7467 26 13.5 26C8.25329 26 4 21.7467 4 16.5C4 11.2533 8.25329 7 13.5 7C13.7112 7 13.9217 7.00692 14.1314 7.02072C15.1827 7.08992 16 7.96283 16 9.0164V14ZM13.5 9C13.668 9 13.8347 9.00552 14 9.0164V16H20.9836C20.9945 16.1653 21 16.332 21 16.5C21 20.6421 17.6421 24 13.5 24C9.35786 24 6 20.6421 6 16.5C6 12.3579 9.35786 9 13.5 9Z" fill="white"/>
</mask>
<g mask="url(#mask0_0_691)">
<rect width="30" height="30" fill="#0880AE"/>
</g>
</svg>
