<svg width="30" height="30" viewBox="0 0 30 30" fill="none" xmlns="http://www.w3.org/2000/svg">
<path fill-rule="evenodd" clip-rule="evenodd" d="M9 17C9.38149 17 9.74635 16.9288 10.082 16.799L12.1158 19.1717C12.0404 19.4348 12 19.7127 12 20C12 21.6569 13.3431 23 15 23C16.6569 23 18 21.6569 18 20C18 19.6397 17.9365 19.2942 17.82 18.9742L21.0066 14.8317C21.3175 14.9407 21.6518 15 22 15C23.6569 15 25 13.6569 25 12C25 11.3749 24.8088 10.7945 24.4817 10.314L25.7926 8.60976C26.1294 8.17201 26.0475 7.54416 25.6097 7.20743C25.172 6.87069 24.5441 6.95258 24.2074 7.39034L22.8705 9.12829C22.595 9.04489 22.3027 9.00005 22 9.00005C20.3431 9.00005 19 10.3432 19 12C19 12.5789 19.1639 13.1194 19.4479 13.5777L16.5045 17.404C16.0623 17.1471 15.5483 17 15 17C14.38 17 13.804 17.1881 13.3258 17.5103L11.6003 15.4972C11.8545 15.0566 12 14.5453 12 14C12 12.3432 10.6569 11 9 11C7.34315 11 6 12.3432 6 14C6 14.4632 6.10495 14.9018 6.29237 15.2935L4.29289 17.2929C3.90237 17.6835 3.90237 18.3166 4.29289 18.7072C4.68342 19.0977 5.31658 19.0977 5.70711 18.7072L7.70658 16.7077C8.09822 16.8951 8.53685 17 9 17ZM23 12C23 12.5523 22.5523 13 22 13C21.4477 13 21 12.5523 21 12C21 11.4478 21.4477 11 22 11C22.5523 11 23 11.4478 23 12ZM16 20C16 20.5523 15.5523 21 15 21C14.4477 21 14 20.5523 14 20C14 19.4478 14.4477 19 15 19C15.5523 19 16 19.4478 16 20ZM10 14C10 14.5523 9.55228 15 9 15C8.44772 15 8 14.5523 8 14C8 13.4478 8.44772 13 9 13C9.55228 13 10 13.4478 10 14Z" fill="black"/>
<mask id="mask0_0_692" style="mask-type:alpha" maskUnits="userSpaceOnUse" x="4" y="7" width="22" height="16">
<path fill-rule="evenodd" clip-rule="evenodd" d="M9 17C9.38149 17 9.74635 16.9288 10.082 16.799L12.1158 19.1717C12.0404 19.4348 12 19.7127 12 20C12 21.6569 13.3431 23 15 23C16.6569 23 18 21.6569 18 20C18 19.6397 17.9365 19.2942 17.82 18.9742L21.0066 14.8317C21.3175 14.9407 21.6518 15 22 15C23.6569 15 25 13.6569 25 12C25 11.3749 24.8088 10.7945 24.4817 10.314L25.7926 8.60976C26.1294 8.17201 26.0475 7.54416 25.6097 7.20743C25.172 6.87069 24.5441 6.95258 24.2074 7.39034L22.8705 9.12829C22.595 9.04489 22.3027 9.00005 22 9.00005C20.3431 9.00005 19 10.3432 19 12C19 12.5789 19.1639 13.1194 19.4479 13.5777L16.5045 17.404C16.0623 17.1471 15.5483 17 15 17C14.38 17 13.804 17.1881 13.3258 17.5103L11.6003 15.4972C11.8545 15.0566 12 14.5453 12 14C12 12.3432 10.6569 11 9 11C7.34315 11 6 12.3432 6 14C6 14.4632 6.10495 14.9018 6.29237 15.2935L4.29289 17.2929C3.90237 17.6835 3.90237 18.3166 4.29289 18.7072C4.68342 19.0977 5.31658 19.0977 5.70711 18.7072L7.70658 16.7077C8.09822 16.8951 8.53685 17 9 17ZM23 12C23 12.5523 22.5523 13 22 13C21.4477 13 21 12.5523 21 12C21 11.4478 21.4477 11 22 11C22.5523 11 23 11.4478 23 12ZM16 20C16 20.5523 15.5523 21 15 21C14.4477 21 14 20.5523 14 20C14 19.4478 14.4477 19 15 19C15.5523 19 16 19.4478 16 20ZM10 14C10 14.5523 9.55228 15 9 15C8.44772 15 8 14.5523 8 14C8 13.4478 8.44772 13 9 13C9.55228 13 10 13.4478 10 14Z" fill="white"/>
</mask>
<g mask="url(#mask0_0_692)">
<rect width="30" height="30" fill="#0880AE"/>
</g>
</svg>
