<svg width="30" height="30" viewBox="0 0 30 30" fill="none" xmlns="http://www.w3.org/2000/svg">
<path d="M14 18.5858V8.99853C14 8.44706 14.4477 8 15 8C15.5523 8 16 8.44706 16 8.99853V18.5858L18.2929 16.2929C18.6834 15.9024 19.3166 15.9024 19.7071 16.2929C20.0976 16.6834 20.0976 17.3166 19.7071 17.7071L15.7071 21.7071C15.3166 22.0976 14.6834 22.0976 14.2929 21.7071L10.2929 17.7071C9.90237 17.3166 9.90237 16.6834 10.2929 16.2929C10.6834 15.9024 11.3166 15.9024 11.7071 16.2929L14 18.5858Z" fill="black"/>
<mask id="mask0_0_657" style="mask-type:alpha" maskUnits="userSpaceOnUse" x="10" y="8" width="10" height="14">
<path d="M14 18.5858V8.99853C14 8.44706 14.4477 8 15 8C15.5523 8 16 8.44706 16 8.99853V18.5858L18.2929 16.2929C18.6834 15.9024 19.3166 15.9024 19.7071 16.2929C20.0976 16.6834 20.0976 17.3166 19.7071 17.7071L15.7071 21.7071C15.3166 22.0976 14.6834 22.0976 14.2929 21.7071L10.2929 17.7071C9.90237 17.3166 9.90237 16.6834 10.2929 16.2929C10.6834 15.9024 11.3166 15.9024 11.7071 16.2929L14 18.5858Z" fill="white"/>
</mask>
<g mask="url(#mask0_0_657)">
<rect width="30" height="30" fill="#0880AE"/>
</g>
</svg>
