<svg width="30" height="30" viewBox="0 0 30 30" fill="none" xmlns="http://www.w3.org/2000/svg">
<path fill-rule="evenodd" clip-rule="evenodd" d="M15 5C14.4477 5 14 5.44772 14 6V13C14 13.5523 14.4477 14 15 14C15.5523 14 16 13.5523 16 13V6C16 5.44772 15.5523 5 15 5ZM11.632 7.73413C11.3658 7.25055 10.7595 7.07166 10.2777 7.33457C9.45547 7.78322 8.69759 8.34949 8.02355 9.02353C4.14456 12.9025 4.16584 19.2129 8.07109 23.1181C11.9763 27.0234 18.2867 27.0447 22.1657 23.1657C26.0447 19.2867 26.0234 12.9763 22.1181 9.07107C21.4776 8.43053 20.7629 7.88542 19.9904 7.44416C19.5111 7.17036 18.9032 7.33549 18.6326 7.81299C18.362 8.29049 18.5313 8.89954 19.0106 9.17334C19.6281 9.52605 20.1998 9.96213 20.7134 10.4758C23.8376 13.6 23.8547 18.6483 20.7515 21.7515C17.6483 24.8546 12.6 24.8376 9.47579 21.7134C6.3516 18.5892 6.33457 13.5409 9.43776 10.4377C9.97823 9.89728 10.5844 9.44436 11.2415 9.08578C11.7233 8.82287 11.8981 8.21772 11.632 7.73413Z" fill="black"/>
<mask id="mask0_0_707" style="mask-type:alpha" maskUnits="userSpaceOnUse" x="5" y="5" width="21" height="22">
<path fill-rule="evenodd" clip-rule="evenodd" d="M15 5C14.4477 5 14 5.44772 14 6V13C14 13.5523 14.4477 14 15 14C15.5523 14 16 13.5523 16 13V6C16 5.44772 15.5523 5 15 5ZM11.632 7.73413C11.3658 7.25055 10.7595 7.07166 10.2777 7.33457C9.45547 7.78322 8.69759 8.34949 8.02355 9.02353C4.14456 12.9025 4.16584 19.2129 8.07109 23.1181C11.9763 27.0234 18.2867 27.0447 22.1657 23.1657C26.0447 19.2867 26.0234 12.9763 22.1181 9.07107C21.4776 8.43053 20.7629 7.88542 19.9904 7.44416C19.5111 7.17036 18.9032 7.33549 18.6326 7.81299C18.362 8.29049 18.5313 8.89954 19.0106 9.17334C19.6281 9.52605 20.1998 9.96213 20.7134 10.4758C23.8376 13.6 23.8547 18.6483 20.7515 21.7515C17.6483 24.8546 12.6 24.8376 9.47579 21.7134C6.3516 18.5892 6.33457 13.5409 9.43776 10.4377C9.97823 9.89728 10.5844 9.44436 11.2415 9.08578C11.7233 8.82287 11.8981 8.21772 11.632 7.73413Z" fill="white"/>
</mask>
<g mask="url(#mask0_0_707)">
<rect width="30" height="30" fill="#0880AE"/>
</g>
</svg>
