<svg width="30" height="30" viewBox="0 0 30 30" fill="none" xmlns="http://www.w3.org/2000/svg">
<path fill-rule="evenodd" clip-rule="evenodd" d="M6.36587 7.43204L14.3659 4.14969C14.8523 3.9501 15.3978 3.9501 15.8842 4.14969L23.8842 7.43204C24.8058 7.81018 25.3087 8.80893 25.0636 9.77448L22.4561 20.0451C22.3515 20.4573 22.1182 20.8254 21.7901 21.0959L16.3975 25.543C15.6586 26.1523 14.5915 26.1523 13.8526 25.543L8.46 21.0959C8.1319 20.8254 7.89859 20.4573 7.79395 20.0451L5.18654 9.77448C4.94141 8.80893 5.44424 7.81018 6.36587 7.43204ZM7.12505 9.28235L9.73245 19.5529L15.125 24L20.5176 19.5529L23.125 9.28235L15.125 6L7.12505 9.28235ZM16.125 19V11.4986L19.1194 12.7432C19.6294 12.9552 20.2146 12.7136 20.4266 12.2036C20.6386 11.6937 20.397 11.1084 19.887 10.8964L15.5089 9.07659C14.8503 8.80285 14.125 9.28679 14.125 10V19C14.125 19.5523 14.5728 20 15.125 20C15.6773 20 16.125 19.5523 16.125 19Z" fill="black"/>
<mask id="mask0_0_709" style="mask-type:alpha" maskUnits="userSpaceOnUse" x="5" y="4" width="21" height="22">
<path fill-rule="evenodd" clip-rule="evenodd" d="M6.36587 7.43204L14.3659 4.14969C14.8523 3.9501 15.3978 3.9501 15.8842 4.14969L23.8842 7.43204C24.8058 7.81018 25.3087 8.80893 25.0636 9.77448L22.4561 20.0451C22.3515 20.4573 22.1182 20.8254 21.7901 21.0959L16.3975 25.543C15.6586 26.1523 14.5915 26.1523 13.8526 25.543L8.46 21.0959C8.1319 20.8254 7.89859 20.4573 7.79395 20.0451L5.18654 9.77448C4.94141 8.80893 5.44424 7.81018 6.36587 7.43204ZM7.12505 9.28235L9.73245 19.5529L15.125 24L20.5176 19.5529L23.125 9.28235L15.125 6L7.12505 9.28235ZM16.125 19V11.4986L19.1194 12.7432C19.6294 12.9552 20.2146 12.7136 20.4266 12.2036C20.6386 11.6937 20.397 11.1084 19.887 10.8964L15.5089 9.07659C14.8503 8.80285 14.125 9.28679 14.125 10V19C14.125 19.5523 14.5728 20 15.125 20C15.6773 20 16.125 19.5523 16.125 19Z" fill="white"/>
</mask>
<g mask="url(#mask0_0_709)">
<rect width="30" height="30" fill="#0880AE"/>
</g>
</svg>
