<svg width="30" height="30" viewBox="0 0 30 30" fill="none" xmlns="http://www.w3.org/2000/svg">
<path fill-rule="evenodd" clip-rule="evenodd" d="M14.7046 4.72207C15.0709 4.35576 15.4894 4.00386 16.007 3.99423L23.9968 3.98889C25.1284 3.96785 26.0195 4.85409 25.9985 5.98573L25.9928 13.9801C25.9832 14.4977 25.6625 14.9473 25.2962 15.3136L15.1848 25.425C14.4037 26.2061 13.1383 26.207 12.3583 25.4271L4.5912 17.6599C3.81126 16.88 3.81216 15.6145 4.59321 14.8335L14.7046 4.72207ZM16.0056 5.99281L6.0054 16.2457L13.7725 24.0128L23.9942 13.9815L23.9999 5.98714L16.0056 5.99281ZM18.0002 9.99146C18.0002 11.0945 18.8957 11.9886 20.0002 11.9886C21.1048 11.9886 22.0002 11.0945 22.0002 9.99146C22.0002 8.88846 21.1048 7.9943 20.0002 7.9943C18.8957 7.9943 18.0002 8.88846 18.0002 9.99146Z" fill="black"/>
<mask id="mask0_0_712" style="mask-type:alpha" maskUnits="userSpaceOnUse" x="4" y="3" width="22" height="24">
<path fill-rule="evenodd" clip-rule="evenodd" d="M14.7046 4.72207C15.0709 4.35576 15.4894 4.00386 16.007 3.99423L23.9968 3.98889C25.1284 3.96785 26.0195 4.85409 25.9985 5.98573L25.9928 13.9801C25.9832 14.4977 25.6625 14.9473 25.2962 15.3136L15.1848 25.425C14.4037 26.2061 13.1383 26.207 12.3583 25.4271L4.5912 17.6599C3.81126 16.88 3.81216 15.6145 4.59321 14.8335L14.7046 4.72207ZM16.0056 5.99281L6.0054 16.2457L13.7725 24.0128L23.9942 13.9815L23.9999 5.98714L16.0056 5.99281ZM18.0002 9.99146C18.0002 11.0945 18.8957 11.9886 20.0002 11.9886C21.1048 11.9886 22.0002 11.0945 22.0002 9.99146C22.0002 8.88846 21.1048 7.9943 20.0002 7.9943C18.8957 7.9943 18.0002 8.88846 18.0002 9.99146Z" fill="white"/>
</mask>
<g mask="url(#mask0_0_712)">
<rect width="30" height="30" fill="#0880AE"/>
</g>
</svg>
