<svg width="30" height="30" viewBox="0 0 30 30" fill="none" xmlns="http://www.w3.org/2000/svg">
<path fill-rule="evenodd" clip-rule="evenodd" d="M19 8H6C4.89543 8 4 8.89543 4 10V20C4 21.1046 4.89543 22 6 22H19C20.1046 22 21 21.1046 21 20V17.9118L24.5134 19.8782C25.1834 20.2368 26 19.7605 26 19.011V10.989C26 10.2395 25.1834 9.76318 24.5134 10.1218L21 12.0955V10C21 8.89543 20.1046 8 19 8ZM6 16V10H19V16H6ZM6 18V20H19V18H6ZM23.9558 12.6837V17.4386L20 15.0612L23.9558 12.6837ZM17 13.5C16.1716 13.5 15.5 12.8284 15.5 12C15.5 11.1716 16.1716 10.5 17 10.5C17.8284 10.5 18.5 11.1716 18.5 12C18.5 12.8284 17.8284 13.5 17 13.5Z" fill="black"/>
<mask id="mask0_0_717" style="mask-type:alpha" maskUnits="userSpaceOnUse" x="4" y="8" width="22" height="14">
<path fill-rule="evenodd" clip-rule="evenodd" d="M19 8H6C4.89543 8 4 8.89543 4 10V20C4 21.1046 4.89543 22 6 22H19C20.1046 22 21 21.1046 21 20V17.9118L24.5134 19.8782C25.1834 20.2368 26 19.7605 26 19.011V10.989C26 10.2395 25.1834 9.76318 24.5134 10.1218L21 12.0955V10C21 8.89543 20.1046 8 19 8ZM6 16V10H19V16H6ZM6 18V20H19V18H6ZM23.9558 12.6837V17.4386L20 15.0612L23.9558 12.6837ZM17 13.5C16.1716 13.5 15.5 12.8284 15.5 12C15.5 11.1716 16.1716 10.5 17 10.5C17.8284 10.5 18.5 11.1716 18.5 12C18.5 12.8284 17.8284 13.5 17 13.5Z" fill="white"/>
</mask>
<g mask="url(#mask0_0_717)">
<rect width="30" height="30" fill="#0880AE"/>
</g>
</svg>
