<svg width="30" height="30" viewBox="0 0 30 30" fill="none" xmlns="http://www.w3.org/2000/svg">
<path fill-rule="evenodd" clip-rule="evenodd" d="M22 9H24C25.1046 9 26 9.89543 26 11V14V20V23C26 24.1046 25.1046 25 24 25H6C4.89543 25 4 24.1046 4 23V7C4 5.89543 4.89543 5 6 5H20C21.1046 5 22 5.89543 22 7V9ZM24 11V13H16C15.4477 13 15 13.4477 15 14V20C15 20.5523 15.4477 21 16 21H24V23H6V11H20H21H24ZM17 19H24V15H17V19ZM6 9H20V7H6V9ZM20 17C20 17.5523 19.5523 18 19 18C18.4477 18 18 17.5523 18 17C18 16.4477 18.4477 16 19 16C19.5523 16 20 16.4477 20 17Z" fill="black"/>
<mask id="mask0_0_718" style="mask-type:alpha" maskUnits="userSpaceOnUse" x="4" y="5" width="22" height="20">
<path fill-rule="evenodd" clip-rule="evenodd" d="M22 9H24C25.1046 9 26 9.89543 26 11V14V20V23C26 24.1046 25.1046 25 24 25H6C4.89543 25 4 24.1046 4 23V7C4 5.89543 4.89543 5 6 5H20C21.1046 5 22 5.89543 22 7V9ZM24 11V13H16C15.4477 13 15 13.4477 15 14V20C15 20.5523 15.4477 21 16 21H24V23H6V11H20H21H24ZM17 19H24V15H17V19ZM6 9H20V7H6V9ZM20 17C20 17.5523 19.5523 18 19 18C18.4477 18 18 17.5523 18 17C18 16.4477 18.4477 16 19 16C19.5523 16 20 16.4477 20 17Z" fill="white"/>
</mask>
<g mask="url(#mask0_0_718)">
<rect width="30" height="30" fill="#0880AE"/>
</g>
</svg>
