<svg width="30" height="30" viewBox="0 0 30 30" fill="none" xmlns="http://www.w3.org/2000/svg">
<path fill-rule="evenodd" clip-rule="evenodd" d="M12.2337 10.8343L12.9707 11L13.0807 10.3816C13.6717 10.1357 14.32 10 15 10C15.68 10 16.3283 10.1357 16.9193 10.3816L17.0293 11L17.7663 10.8343C19.1127 11.7302 20 13.2615 20 15C20 16.7385 19.1127 18.2698 17.7663 19.1657L17.0293 19L16.9193 19.6184C16.3283 19.8643 15.68 20 15 20C14.32 20 13.6717 19.8643 13.0807 19.6184L12.9707 19L12.2337 19.1657C10.8873 18.2698 10 16.7385 10 15C10 13.2615 10.8873 11.7302 12.2337 10.8343ZM13.4748 8.16665C13.9658 8.05754 14.4762 8 15 8C15.5238 8 16.0342 8.05754 16.5252 8.16665L16.186 6.25948H13.814L13.4748 8.16665ZM18.7373 9.08009L17.9951 4.90818C17.9012 4.38011 17.4888 4 17.0098 4H12.9902C12.5112 4 12.0988 4.38011 12.0049 4.90818L11.2627 9.08009C9.30196 10.3205 8 12.5082 8 15C8 17.4918 9.30196 19.6795 11.2627 20.9199L12.0049 25.0918C12.0988 25.6199 12.5112 26 12.9902 26H17.0098C17.4888 26 17.9012 25.6199 17.9951 25.0918L18.7373 20.9199C20.698 19.6795 22 17.4918 22 15C22 12.5082 20.698 10.3205 18.7373 9.08009ZM13.814 23.7405L13.4748 21.8334C13.9658 21.9425 14.4762 22 15 22C15.5238 22 16.0342 21.9425 16.5252 21.8334L16.186 23.7405H13.814Z" fill="black"/>
<mask id="mask0_0_719" style="mask-type:alpha" maskUnits="userSpaceOnUse" x="8" y="4" width="14" height="22">
<path fill-rule="evenodd" clip-rule="evenodd" d="M12.2337 10.8343L12.9707 11L13.0807 10.3816C13.6717 10.1357 14.32 10 15 10C15.68 10 16.3283 10.1357 16.9193 10.3816L17.0293 11L17.7663 10.8343C19.1127 11.7302 20 13.2615 20 15C20 16.7385 19.1127 18.2698 17.7663 19.1657L17.0293 19L16.9193 19.6184C16.3283 19.8643 15.68 20 15 20C14.32 20 13.6717 19.8643 13.0807 19.6184L12.9707 19L12.2337 19.1657C10.8873 18.2698 10 16.7385 10 15C10 13.2615 10.8873 11.7302 12.2337 10.8343ZM13.4748 8.16665C13.9658 8.05754 14.4762 8 15 8C15.5238 8 16.0342 8.05754 16.5252 8.16665L16.186 6.25948H13.814L13.4748 8.16665ZM18.7373 9.08009L17.9951 4.90818C17.9012 4.38011 17.4888 4 17.0098 4H12.9902C12.5112 4 12.0988 4.38011 12.0049 4.90818L11.2627 9.08009C9.30196 10.3205 8 12.5082 8 15C8 17.4918 9.30196 19.6795 11.2627 20.9199L12.0049 25.0918C12.0988 25.6199 12.5112 26 12.9902 26H17.0098C17.4888 26 17.9012 25.6199 17.9951 25.0918L18.7373 20.9199C20.698 19.6795 22 17.4918 22 15C22 12.5082 20.698 10.3205 18.7373 9.08009ZM13.814 23.7405L13.4748 21.8334C13.9658 21.9425 14.4762 22 15 22C15.5238 22 16.0342 21.9425 16.5252 21.8334L16.186 23.7405H13.814Z" fill="white"/>
</mask>
<g mask="url(#mask0_0_719)">
<rect width="30" height="30" fill="#0880AE"/>
</g>
</svg>
