<svg width="30" height="30" viewBox="0 0 30 30" fill="none" xmlns="http://www.w3.org/2000/svg">
<path d="M16 11.4142V21.0015C16 21.5529 15.5523 22 15 22C14.4477 22 14 21.5529 14 21.0015V11.4142L11.7071 13.7071C11.3166 14.0976 10.6834 14.0976 10.2929 13.7071C9.90237 13.3166 9.90237 12.6834 10.2929 12.2929L14.2929 8.29289C14.6834 7.90237 15.3166 7.90237 15.7071 8.29289L19.7071 12.2929C20.0976 12.6834 20.0976 13.3166 19.7071 13.7071C19.3166 14.0976 18.6834 14.0976 18.2929 13.7071L16 11.4142Z" fill="black"/>
<mask id="mask0_0_660" style="mask-type:alpha" maskUnits="userSpaceOnUse" x="10" y="8" width="10" height="14">
<path d="M16 11.4142V21.0015C16 21.5529 15.5523 22 15 22C14.4477 22 14 21.5529 14 21.0015V11.4142L11.7071 13.7071C11.3166 14.0976 10.6834 14.0976 10.2929 13.7071C9.90237 13.3166 9.90237 12.6834 10.2929 12.2929L14.2929 8.29289C14.6834 7.90237 15.3166 7.90237 15.7071 8.29289L19.7071 12.2929C20.0976 12.6834 20.0976 13.3166 19.7071 13.7071C19.3166 14.0976 18.6834 14.0976 18.2929 13.7071L16 11.4142Z" fill="white"/>
</mask>
<g mask="url(#mask0_0_660)">
<rect width="30" height="30" fill="#0880AE"/>
</g>
</svg>
