<svg width="30" height="30" viewBox="0 0 30 30" fill="none" xmlns="http://www.w3.org/2000/svg">
<path fill-rule="evenodd" clip-rule="evenodd" d="M11.0023 18.9311C8.60984 17.5482 7 14.9621 7 12C7 7.58172 10.5817 4 15 4C19.4183 4 23 7.58172 23 12C23 14.9621 21.3902 17.5482 18.9977 18.9311C18.9992 18.9538 19 18.9767 19 18.9998V24.9982C19 25.8978 17.9045 26.3397 17.28 25.692L15 23.3272L12.72 25.692C12.0955 26.3397 11 25.8978 11 24.9982V18.9998C11 18.9767 11.0008 18.9538 11.0023 18.9311ZM13 19.748V22.5204L14.28 21.1927C14.6733 20.7848 15.3267 20.7848 15.72 21.1927L17 22.5204V19.748C16.3608 19.9125 15.6906 20 15 20C14.3094 20 13.6392 19.9125 13 19.748ZM15 18C18.3137 18 21 15.3137 21 12C21 8.68629 18.3137 6 15 6C11.6863 6 9 8.68629 9 12C9 15.3137 11.6863 18 15 18ZM15 16C12.7909 16 11 14.2091 11 12C11 9.79086 12.7909 8 15 8C17.2091 8 19 9.79086 19 12C19 14.2091 17.2091 16 15 16ZM17 12C17 13.1046 16.1046 14 15 14C13.8954 14 13 13.1046 13 12C13 10.8954 13.8954 10 15 10C16.1046 10 17 10.8954 17 12Z" fill="black"/>
<mask id="mask0_0_661" style="mask-type:alpha" maskUnits="userSpaceOnUse" x="7" y="4" width="16" height="22">
<path fill-rule="evenodd" clip-rule="evenodd" d="M11.0023 18.9311C8.60984 17.5482 7 14.9621 7 12C7 7.58172 10.5817 4 15 4C19.4183 4 23 7.58172 23 12C23 14.9621 21.3902 17.5482 18.9977 18.9311C18.9992 18.9538 19 18.9767 19 18.9998V24.9982C19 25.8978 17.9045 26.3397 17.28 25.692L15 23.3272L12.72 25.692C12.0955 26.3397 11 25.8978 11 24.9982V18.9998C11 18.9767 11.0008 18.9538 11.0023 18.9311ZM13 19.748V22.5204L14.28 21.1927C14.6733 20.7848 15.3267 20.7848 15.72 21.1927L17 22.5204V19.748C16.3608 19.9125 15.6906 20 15 20C14.3094 20 13.6392 19.9125 13 19.748ZM15 18C18.3137 18 21 15.3137 21 12C21 8.68629 18.3137 6 15 6C11.6863 6 9 8.68629 9 12C9 15.3137 11.6863 18 15 18ZM15 16C12.7909 16 11 14.2091 11 12C11 9.79086 12.7909 8 15 8C17.2091 8 19 9.79086 19 12C19 14.2091 17.2091 16 15 16ZM17 12C17 13.1046 16.1046 14 15 14C13.8954 14 13 13.1046 13 12C13 10.8954 13.8954 10 15 10C16.1046 10 17 10.8954 17 12Z" fill="white"/>
</mask>
<g mask="url(#mask0_0_661)">
<rect width="30" height="30" fill="#0880AE"/>
</g>
</svg>
