<svg width="30" height="30" viewBox="0 0 30 30" fill="none" xmlns="http://www.w3.org/2000/svg">
<path fill-rule="evenodd" clip-rule="evenodd" d="M9 5H21C22.1046 5 23 5.89543 23 7V8.93641C23.0013 8.95744 23.002 8.97864 23.002 9V14C23.002 14.0214 23.0013 14.0426 23 14.0636V24C23 25.1046 22.1046 26 21 26H9C7.89543 26 7 25.1046 7 24V7C7 5.89543 7.89543 5 9 5ZM21 7V8H15.002C14.0639 8 13.6421 9.1754 14.3662 9.77186L16.4642 11.5L14.3662 13.2281C13.6421 13.8246 14.0639 15 15.002 15H21V24H13V24.0952C13 24.5949 12.5523 25 12 25C11.4477 25 11 24.5949 11 24.0952V24H9V7H11V6.90476C11 6.40508 11.4477 6 12 6C12.5523 6 13 6.40508 13 6.90476V7H21ZM18.6728 10.7281L17.7888 10H21.002V13H17.7888L18.6728 12.2719C19.1584 11.8719 19.1584 11.1281 18.6728 10.7281Z" fill="black"/>
<mask id="mask0_0_665" style="mask-type:alpha" maskUnits="userSpaceOnUse" x="7" y="5" width="17" height="21">
<path fill-rule="evenodd" clip-rule="evenodd" d="M9 5H21C22.1046 5 23 5.89543 23 7V8.93641C23.0013 8.95744 23.002 8.97864 23.002 9V14C23.002 14.0214 23.0013 14.0426 23 14.0636V24C23 25.1046 22.1046 26 21 26H9C7.89543 26 7 25.1046 7 24V7C7 5.89543 7.89543 5 9 5ZM21 7V8H15.002C14.0639 8 13.6421 9.1754 14.3662 9.77186L16.4642 11.5L14.3662 13.2281C13.6421 13.8246 14.0639 15 15.002 15H21V24H13V24.0952C13 24.5949 12.5523 25 12 25C11.4477 25 11 24.5949 11 24.0952V24H9V7H11V6.90476C11 6.40508 11.4477 6 12 6C12.5523 6 13 6.40508 13 6.90476V7H21ZM18.6728 10.7281L17.7888 10H21.002V13H17.7888L18.6728 12.2719C19.1584 11.8719 19.1584 11.1281 18.6728 10.7281Z" fill="white"/>
</mask>
<g mask="url(#mask0_0_665)">
<rect width="30" height="30" fill="#0880AE"/>
</g>
</svg>
