<svg width="30" height="30" viewBox="0 0 30 30" fill="none" xmlns="http://www.w3.org/2000/svg">
<path fill-rule="evenodd" clip-rule="evenodd" d="M15 21C18.3137 21 21 18.3137 21 15C21 11.6863 18.3137 9 15 9C11.6863 9 9 11.6863 9 15C9 18.3137 11.6863 21 15 21Z" fill="black"/>
<mask id="mask0_0_667" style="mask-type:alpha" maskUnits="userSpaceOnUse" x="9" y="9" width="12" height="12">
<path fill-rule="evenodd" clip-rule="evenodd" d="M15 21C18.3137 21 21 18.3137 21 15C21 11.6863 18.3137 9 15 9C11.6863 9 9 11.6863 9 15C9 18.3137 11.6863 21 15 21Z" fill="white"/>
</mask>
<g mask="url(#mask0_0_667)">
<rect width="30" height="30" fill="#0880AE"/>
</g>
</svg>
