<svg width="30" height="30" viewBox="0 0 30 30" fill="none" xmlns="http://www.w3.org/2000/svg">
<path fill-rule="evenodd" clip-rule="evenodd" d="M11.5858 6.58579L10.1716 8H7C5.89543 8 5 8.89543 5 10V21C5 22.1046 5.89543 23 7 23H23C24.1046 23 25 22.1046 25 21V10C25 8.89543 24.1046 8 23 8H19.8284L18.4142 6.58579C18.0391 6.21071 17.5304 6 17 6H13C12.4696 6 11.9609 6.21071 11.5858 6.58579ZM7 21V10H11L13 8H17L19 10H23V21H7ZM17 15C17 16.1046 16.1046 17 15 17C13.8954 17 13 16.1046 13 15C13 13.8954 13.8954 13 15 13C16.1046 13 17 13.8954 17 15Z" fill="black"/>
<mask id="mask0_0_669" style="mask-type:alpha" maskUnits="userSpaceOnUse" x="5" y="6" width="20" height="17">
<path fill-rule="evenodd" clip-rule="evenodd" d="M11.5858 6.58579L10.1716 8H7C5.89543 8 5 8.89543 5 10V21C5 22.1046 5.89543 23 7 23H23C24.1046 23 25 22.1046 25 21V10C25 8.89543 24.1046 8 23 8H19.8284L18.4142 6.58579C18.0391 6.21071 17.5304 6 17 6H13C12.4696 6 11.9609 6.21071 11.5858 6.58579ZM7 21V10H11L13 8H17L19 10H23V21H7ZM17 15C17 16.1046 16.1046 17 15 17C13.8954 17 13 16.1046 13 15C13 13.8954 13.8954 13 15 13C16.1046 13 17 13.8954 17 15Z" fill="white"/>
</mask>
<g mask="url(#mask0_0_669)">
<rect width="30" height="30" fill="#0880AE"/>
</g>
</svg>
