<svg width="30" height="30" viewBox="0 0 30 30" fill="none" xmlns="http://www.w3.org/2000/svg">
<path fill-rule="evenodd" clip-rule="evenodd" d="M23 8H7C5.89543 8 5 8.89543 5 10V21C5 22.1046 5.89543 23 7 23H23C24.1046 23 25 22.1046 25 21V10C25 8.89543 24.1046 8 23 8ZM7 21V15H23V21H7ZM23 13H7V10H23V13ZM18 17C17.4477 17 17 17.4477 17 18C17 18.5523 17.4477 19 18 19H20C20.5523 19 21 18.5523 21 18C21 17.4477 20.5523 17 20 17H18Z" fill="black"/>
<mask id="mask0_0_670" style="mask-type:alpha" maskUnits="userSpaceOnUse" x="5" y="8" width="20" height="15">
<path fill-rule="evenodd" clip-rule="evenodd" d="M23 8H7C5.89543 8 5 8.89543 5 10V21C5 22.1046 5.89543 23 7 23H23C24.1046 23 25 22.1046 25 21V10C25 8.89543 24.1046 8 23 8ZM7 21V15H23V21H7ZM23 13H7V10H23V13ZM18 17C17.4477 17 17 17.4477 17 18C17 18.5523 17.4477 19 18 19H20C20.5523 19 21 18.5523 21 18C21 17.4477 20.5523 17 20 17H18Z" fill="white"/>
</mask>
<g mask="url(#mask0_0_670)">
<rect y="0.875" width="30" height="30" fill="#0880AE"/>
</g>
</svg>
