<svg width="30" height="30" viewBox="0 0 30 30" fill="none" xmlns="http://www.w3.org/2000/svg">
<path fill-rule="evenodd" clip-rule="evenodd" d="M15.523 25C18.9356 25 22.0356 23.0913 23.7346 20.0502C24.4463 18.7763 23.6507 17.1563 22.2526 17.0326C21.1009 16.9307 20.1744 15.9699 20.0585 14.7597C19.9635 13.7687 19.193 13.001 18.2486 12.9565C16.7279 12.8848 15.523 11.5607 15.523 9.94947C15.523 9.30458 15.7138 8.69528 16.0643 8.18584C17.0455 6.75994 15.9319 4.78919 14.2746 5.0183C9.56158 5.66983 6 9.9151 6 14.9663C6 20.5078 10.2636 25 15.523 25ZM18.1635 14.9612C18.3712 17.1301 20.0248 18.8493 22.0932 19.0323C20.769 21.4026 18.3223 22.9933 15.523 22.9933C11.3155 22.9933 7.90461 19.3995 7.90461 14.9663C7.90461 10.8905 10.7877 7.52427 14.5223 7.00799C13.9537 7.8344 13.6184 8.85068 13.6184 9.94947C13.6184 12.6437 15.6342 14.842 18.1635 14.9612ZM15.523 22.0585C13.9452 22.0585 12.6661 20.7109 12.6661 19.0484C12.6661 17.386 13.9452 16.0383 15.523 16.0383C17.1009 16.0383 18.38 17.386 18.38 19.0484C18.38 20.7109 17.1009 22.0585 15.523 22.0585ZM16.4754 19.0484C16.4754 19.6026 16.049 20.0518 15.523 20.0518C14.9971 20.0518 14.5707 19.6026 14.5707 19.0484C14.5707 18.4943 14.9971 18.045 15.523 18.045C16.049 18.045 16.4754 18.4943 16.4754 19.0484ZM10.2854 18.045C9.49646 18.045 8.85691 17.3712 8.85691 16.54C8.85691 15.7088 9.49646 15.0349 10.2854 15.0349C11.0743 15.0349 11.7138 15.7088 11.7138 16.54C11.7138 17.3712 11.0743 18.045 10.2854 18.045ZM9.80922 16.54C9.80922 16.2629 10.0224 16.0383 10.2854 16.0383C10.5483 16.0383 10.7615 16.2629 10.7615 16.54C10.7615 16.8171 10.5483 17.0417 10.2854 17.0417C10.0224 17.0417 9.80922 16.8171 9.80922 16.54ZM11.2377 13.0282C10.4488 13.0282 9.80922 12.3544 9.80922 11.5231C9.80922 10.6919 10.4488 10.0181 11.2377 10.0181C12.0266 10.0181 12.6661 10.6919 12.6661 11.5231C12.6661 12.3544 12.0266 13.0282 11.2377 13.0282ZM10.7615 11.5231C10.7615 11.2461 10.9747 11.0215 11.2377 11.0215C11.5006 11.0215 11.7138 11.2461 11.7138 11.5231C11.7138 11.8002 11.5006 12.0248 11.2377 12.0248C10.9747 12.0248 10.7615 11.8002 10.7615 11.5231Z" fill="black"/>
<mask id="mask0_0_679" style="mask-type:alpha" maskUnits="userSpaceOnUse" x="6" y="5" width="18" height="20">
<path fill-rule="evenodd" clip-rule="evenodd" d="M15.523 25C18.9356 25 22.0356 23.0913 23.7346 20.0502C24.4463 18.7763 23.6507 17.1563 22.2526 17.0326C21.1009 16.9307 20.1744 15.9699 20.0585 14.7597C19.9635 13.7687 19.193 13.001 18.2486 12.9565C16.7279 12.8848 15.523 11.5607 15.523 9.94947C15.523 9.30458 15.7138 8.69528 16.0643 8.18584C17.0455 6.75994 15.9319 4.78919 14.2746 5.0183C9.56158 5.66983 6 9.9151 6 14.9663C6 20.5078 10.2636 25 15.523 25ZM18.1635 14.9612C18.3712 17.1301 20.0248 18.8493 22.0932 19.0323C20.769 21.4026 18.3223 22.9933 15.523 22.9933C11.3155 22.9933 7.90461 19.3995 7.90461 14.9663C7.90461 10.8905 10.7877 7.52427 14.5223 7.00799C13.9537 7.8344 13.6184 8.85068 13.6184 9.94947C13.6184 12.6437 15.6342 14.842 18.1635 14.9612ZM15.523 22.0585C13.9452 22.0585 12.6661 20.7109 12.6661 19.0484C12.6661 17.386 13.9452 16.0383 15.523 16.0383C17.1009 16.0383 18.38 17.386 18.38 19.0484C18.38 20.7109 17.1009 22.0585 15.523 22.0585ZM16.4754 19.0484C16.4754 19.6026 16.049 20.0518 15.523 20.0518C14.9971 20.0518 14.5707 19.6026 14.5707 19.0484C14.5707 18.4943 14.9971 18.045 15.523 18.045C16.049 18.045 16.4754 18.4943 16.4754 19.0484ZM10.2854 18.045C9.49646 18.045 8.85691 17.3712 8.85691 16.54C8.85691 15.7088 9.49646 15.0349 10.2854 15.0349C11.0743 15.0349 11.7138 15.7088 11.7138 16.54C11.7138 17.3712 11.0743 18.045 10.2854 18.045ZM9.80922 16.54C9.80922 16.2629 10.0224 16.0383 10.2854 16.0383C10.5483 16.0383 10.7615 16.2629 10.7615 16.54C10.7615 16.8171 10.5483 17.0417 10.2854 17.0417C10.0224 17.0417 9.80922 16.8171 9.80922 16.54ZM11.2377 13.0282C10.4488 13.0282 9.80922 12.3544 9.80922 11.5231C9.80922 10.6919 10.4488 10.0181 11.2377 10.0181C12.0266 10.0181 12.6661 10.6919 12.6661 11.5231C12.6661 12.3544 12.0266 13.0282 11.2377 13.0282ZM10.7615 11.5231C10.7615 11.2461 10.9747 11.0215 11.2377 11.0215C11.5006 11.0215 11.7138 11.2461 11.7138 11.5231C11.7138 11.8002 11.5006 12.0248 11.2377 12.0248C10.9747 12.0248 10.7615 11.8002 10.7615 11.5231Z" fill="white"/>
</mask>
<g mask="url(#mask0_0_679)">
<rect width="30" height="30" fill="#0880AE"/>
</g>
</svg>
