<svg width="30" height="30" viewBox="0 0 30 30" fill="none" xmlns="http://www.w3.org/2000/svg">
<path fill-rule="evenodd" clip-rule="evenodd" d="M23 6H7C5.89543 6 5 6.89543 5 8V19C5 20.1046 5.89543 21 7 21H12V22H11C10.4477 22 10 22.4477 10 23C10 23.5523 10.4477 24 11 24H12H14H16H18H19C19.5523 24 20 23.5523 20 23C20 22.4477 19.5523 22 19 22H18V21H23C24.1046 21 25 20.1046 25 19V8C25 6.89543 24.1046 6 23 6ZM16 19H18H23V16H7V19H12H14H16ZM16 21V22H14V21H16ZM23 14H7V8H23V14Z" fill="black"/>
<mask id="mask0_0_682" style="mask-type:alpha" maskUnits="userSpaceOnUse" x="5" y="6" width="20" height="18">
<path fill-rule="evenodd" clip-rule="evenodd" d="M23 6H7C5.89543 6 5 6.89543 5 8V19C5 20.1046 5.89543 21 7 21H12V22H11C10.4477 22 10 22.4477 10 23C10 23.5523 10.4477 24 11 24H12H14H16H18H19C19.5523 24 20 23.5523 20 23C20 22.4477 19.5523 22 19 22H18V21H23C24.1046 21 25 20.1046 25 19V8C25 6.89543 24.1046 6 23 6ZM16 19H18H23V16H7V19H12H14H16ZM16 21V22H14V21H16ZM23 14H7V8H23V14Z" fill="white"/>
</mask>
<g mask="url(#mask0_0_682)">
<rect width="30" height="30" fill="#0880AE"/>
</g>
</svg>
