<svg width="30" height="30" viewBox="0 0 30 30" fill="none" xmlns="http://www.w3.org/2000/svg">
<path fill-rule="evenodd" clip-rule="evenodd" d="M7 10V8H11.5858L13.2929 9.70711C13.4804 9.89464 13.7348 10 14 10H23V12H6C5.44772 12 5 12.4477 5 13V23C5 23.5523 5.44772 24 6 24H24C24.5523 24 25 23.5523 25 23V9C25 8.44772 24.5523 8 24 8H14.4142L12.7071 6.29289C12.5196 6.10536 12.2652 6 12 6H6C5.44772 6 5 6.44772 5 7V10C5 10.5523 5.44772 11 6 11C6.55228 11 7 10.5523 7 10ZM7 14H23V22H7V14Z" fill="black"/>
<mask id="mask0_0_687" style="mask-type:alpha" maskUnits="userSpaceOnUse" x="5" y="6" width="20" height="18">
<path fill-rule="evenodd" clip-rule="evenodd" d="M7 10V8H11.5858L13.2929 9.70711C13.4804 9.89464 13.7348 10 14 10H23V12H6C5.44772 12 5 12.4477 5 13V23C5 23.5523 5.44772 24 6 24H24C24.5523 24 25 23.5523 25 23V9C25 8.44772 24.5523 8 24 8H14.4142L12.7071 6.29289C12.5196 6.10536 12.2652 6 12 6H6C5.44772 6 5 6.44772 5 7V10C5 10.5523 5.44772 11 6 11C6.55228 11 7 10.5523 7 10ZM7 14H23V22H7V14Z" fill="white"/>
</mask>
<g mask="url(#mask0_0_687)">
<rect width="30" height="30" fill="#0880AE"/>
</g>
</svg>
