<svg width="30" height="30" viewBox="0 0 30 30" fill="none" xmlns="http://www.w3.org/2000/svg">
<path fill-rule="evenodd" clip-rule="evenodd" d="M9 6H21C21.6974 6 22.3445 6.3633 22.7076 6.95874L25.7076 11.8784C26.1182 12.5518 26.0947 13.4036 25.6477 14.0534L16.6477 26.1337C15.8529 27.2888 14.1471 27.2888 13.3523 26.1337L4.35235 14.0534C3.90528 13.4036 3.88182 12.5518 4.29244 11.8784L7.29244 6.95874C7.65554 6.3633 8.30259 6 9 6ZM6.56082 12H23.4392L21 8H9L6.56082 12ZM23.1951 14H6.80486L15 25L23.1951 14Z" fill="black"/>
<mask id="mask0_0_689" style="mask-type:alpha" maskUnits="userSpaceOnUse" x="4" y="6" width="22" height="21">
<path fill-rule="evenodd" clip-rule="evenodd" d="M9 6H21C21.6974 6 22.3445 6.3633 22.7076 6.95874L25.7076 11.8784C26.1182 12.5518 26.0947 13.4036 25.6477 14.0534L16.6477 26.1337C15.8529 27.2888 14.1471 27.2888 13.3523 26.1337L4.35235 14.0534C3.90528 13.4036 3.88182 12.5518 4.29244 11.8784L7.29244 6.95874C7.65554 6.3633 8.30259 6 9 6ZM6.56082 12H23.4392L21 8H9L6.56082 12ZM23.1951 14H6.80486L15 25L23.1951 14Z" fill="white"/>
</mask>
<g mask="url(#mask0_0_689)">
<rect width="30" height="30" fill="#0880AE"/>
</g>
</svg>
