<svg width="30" height="30" viewBox="0 0 30 30" fill="none" xmlns="http://www.w3.org/2000/svg">
<path fill-rule="evenodd" clip-rule="evenodd" d="M15.9923 5.26351L22.9923 9.26351C24.3359 10.0313 24.3359 11.9687 22.9923 12.7365L22.5311 13L22.9923 13.2635C24.3359 14.0313 24.3359 15.9687 22.9923 16.7365L22.5311 17L22.9923 17.2635C24.3359 18.0313 24.3359 19.9687 22.9923 20.7365L15.9923 24.7365C15.3774 25.0878 14.6226 25.0878 14.0077 24.7365L7.00772 20.7365C5.66409 19.9687 5.66409 18.0313 7.00772 17.2635L7.46887 17L7.00772 16.7365C5.66409 15.9687 5.66409 14.0313 7.00772 13.2635L7.46887 13L7.00772 12.7365C5.66409 11.9687 5.66409 10.0313 7.00772 9.26351L14.0077 5.26351C14.6226 4.91216 15.3774 4.91216 15.9923 5.26351ZM15.9923 16.7365L20.5156 14.1518L22 15L15 19L8 15L9.48444 14.1518L14.0077 16.7365C14.6226 17.0878 15.3774 17.0878 15.9923 16.7365ZM20.5156 18.1518L15.9923 20.7365C15.3774 21.0878 14.6226 21.0878 14.0077 20.7365L9.48444 18.1518L8 19L15 23L22 19L20.5156 18.1518ZM8 11L15 7L22 11L15 15L8 11Z" fill="black"/>
<mask id="mask0_0_697" style="mask-type:alpha" maskUnits="userSpaceOnUse" x="6" y="5" width="18" height="20">
<path fill-rule="evenodd" clip-rule="evenodd" d="M15.9923 5.26351L22.9923 9.26351C24.3359 10.0313 24.3359 11.9687 22.9923 12.7365L22.5311 13L22.9923 13.2635C24.3359 14.0313 24.3359 15.9687 22.9923 16.7365L22.5311 17L22.9923 17.2635C24.3359 18.0313 24.3359 19.9687 22.9923 20.7365L15.9923 24.7365C15.3774 25.0878 14.6226 25.0878 14.0077 24.7365L7.00772 20.7365C5.66409 19.9687 5.66409 18.0313 7.00772 17.2635L7.46887 17L7.00772 16.7365C5.66409 15.9687 5.66409 14.0313 7.00772 13.2635L7.46887 13L7.00772 12.7365C5.66409 11.9687 5.66409 10.0313 7.00772 9.26351L14.0077 5.26351C14.6226 4.91216 15.3774 4.91216 15.9923 5.26351ZM15.9923 16.7365L20.5156 14.1518L22 15L15 19L8 15L9.48444 14.1518L14.0077 16.7365C14.6226 17.0878 15.3774 17.0878 15.9923 16.7365ZM20.5156 18.1518L15.9923 20.7365C15.3774 21.0878 14.6226 21.0878 14.0077 20.7365L9.48444 18.1518L8 19L15 23L22 19L20.5156 18.1518ZM8 11L15 7L22 11L15 15L8 11Z" fill="white"/>
</mask>
<g mask="url(#mask0_0_697)">
<rect width="30" height="30" fill="#0880AE"/>
</g>
</svg>
