<svg width="30" height="30" viewBox="0 0 30 30" fill="none" xmlns="http://www.w3.org/2000/svg">
<path d="M8 16C7.44772 16 7 15.5523 7 15C7 14.4477 7.44772 14 8 14H22C22.5523 14 23 14.4477 23 15C23 15.5523 22.5523 16 22 16H8Z" fill="black"/>
<mask id="mask0_0_702" style="mask-type:alpha" maskUnits="userSpaceOnUse" x="7" y="14" width="16" height="2">
<path d="M8 16C7.44772 16 7 15.5523 7 15C7 14.4477 7.44772 14 8 14H22C22.5523 14 23 14.4477 23 15C23 15.5523 22.5523 16 22 16H8Z" fill="white"/>
</mask>
<g mask="url(#mask0_0_702)">
<rect width="30" height="30" fill="#0880AE"/>
</g>
</svg>
