<svg width="30" height="30" viewBox="0 0 30 30" fill="none" xmlns="http://www.w3.org/2000/svg">
<path fill-rule="evenodd" clip-rule="evenodd" d="M20.3685 11.7183L17.2578 11.1354L18.9263 8.25155C19.6976 6.91822 18.7355 5.25 17.1951 5.25H14.1111C13.3977 5.25 12.7382 5.63006 12.3806 6.24738L8.26958 13.3431C7.57787 14.537 8.27434 16.0561 9.63035 16.3112L11.9168 16.7414L8.84009 23.4124C7.87548 25.5039 10.6286 27.3003 12.1544 25.5749L21.4983 15.009C22.5272 13.8455 21.8951 12.0044 20.3685 11.7183ZM14.1111 7.25H17.1951L14.1111 12.5806L20.0001 13.6841L10.6562 24.25L14.807 15.25L10.0001 14.3457L14.1111 7.25Z" fill="black"/>
<mask id="mask0_0_713" style="mask-type:alpha" maskUnits="userSpaceOnUse" x="7" y="5" width="16" height="22">
<path fill-rule="evenodd" clip-rule="evenodd" d="M20.3685 11.7183L17.2578 11.1354L18.9263 8.25155C19.6976 6.91822 18.7355 5.25 17.1951 5.25H14.1111C13.3977 5.25 12.7382 5.63006 12.3806 6.24738L8.26958 13.3431C7.57787 14.537 8.27434 16.0561 9.63035 16.3112L11.9168 16.7414L8.84009 23.4124C7.87548 25.5039 10.6286 27.3003 12.1544 25.5749L21.4983 15.009C22.5272 13.8455 21.8951 12.0044 20.3685 11.7183ZM14.1111 7.25H17.1951L14.1111 12.5806L20.0001 13.6841L10.6562 24.25L14.807 15.25L10.0001 14.3457L14.1111 7.25Z" fill="white"/>
</mask>
<g mask="url(#mask0_0_713)">
<rect width="30" height="30" fill="#0880AE"/>
</g>
</svg>
