<svg width="30" height="30" viewBox="0 0 30 30" fill="none" xmlns="http://www.w3.org/2000/svg">
<path fill-rule="evenodd" clip-rule="evenodd" d="M5.87628 19.1435L4.54955 17.8168C3.81682 17.0841 3.81682 15.8961 4.54955 15.1634L15.1634 4.54955C15.8961 3.81682 17.0841 3.81682 17.8168 4.54955L19.1435 5.87628C19.8763 6.60901 19.8763 7.797 19.1435 8.52973C18.7772 8.89609 18.7772 9.49009 19.1435 9.85646C19.5099 10.2228 20.1039 10.2228 20.4703 9.85646C21.203 9.12372 22.391 9.12372 23.1237 9.85646L24.4505 11.1832C25.1832 11.9159 25.1832 13.1039 24.4505 13.8366L13.8366 24.4505C13.1039 25.1832 11.9159 25.1832 11.1832 24.4505L9.85646 23.1237C9.12372 22.391 9.12372 21.203 9.85646 20.4703C10.2228 20.1039 10.2228 19.5099 9.85646 19.1435C9.49009 18.7772 8.89609 18.7772 8.52973 19.1435C7.797 19.8763 6.60901 19.8763 5.87628 19.1435ZM7.203 17.8168C8.3021 16.7177 10.0841 16.7177 11.1832 17.8168C12.2823 18.9159 12.2823 20.6979 11.1832 21.797L12.5099 23.1237L23.1237 12.5099L21.797 11.1832C20.6979 12.2823 18.9159 12.2823 17.8168 11.1832C16.7177 10.0841 16.7177 8.3021 17.8168 7.203L16.4901 5.87628L5.87628 16.4901L7.203 17.8168ZM11.8465 11.8465C11.4802 12.2129 11.486 12.8127 11.8595 13.1862L15.8138 17.1405C16.1873 17.514 16.7871 17.5198 17.1535 17.1535C17.5198 16.7871 17.514 16.1873 17.1405 15.8138L13.1862 11.8595C12.8127 11.486 12.2129 11.4802 11.8465 11.8465Z" fill="black"/>
<mask id="mask0_0_714" style="mask-type:alpha" maskUnits="userSpaceOnUse" x="4" y="4" width="21" height="21">
<path fill-rule="evenodd" clip-rule="evenodd" d="M5.87628 19.1435L4.54955 17.8168C3.81682 17.0841 3.81682 15.8961 4.54955 15.1634L15.1634 4.54955C15.8961 3.81682 17.0841 3.81682 17.8168 4.54955L19.1435 5.87628C19.8763 6.60901 19.8763 7.797 19.1435 8.52973C18.7772 8.89609 18.7772 9.49009 19.1435 9.85646C19.5099 10.2228 20.1039 10.2228 20.4703 9.85646C21.203 9.12372 22.391 9.12372 23.1237 9.85646L24.4505 11.1832C25.1832 11.9159 25.1832 13.1039 24.4505 13.8366L13.8366 24.4505C13.1039 25.1832 11.9159 25.1832 11.1832 24.4505L9.85646 23.1237C9.12372 22.391 9.12372 21.203 9.85646 20.4703C10.2228 20.1039 10.2228 19.5099 9.85646 19.1435C9.49009 18.7772 8.89609 18.7772 8.52973 19.1435C7.797 19.8763 6.60901 19.8763 5.87628 19.1435ZM7.203 17.8168C8.3021 16.7177 10.0841 16.7177 11.1832 17.8168C12.2823 18.9159 12.2823 20.6979 11.1832 21.797L12.5099 23.1237L23.1237 12.5099L21.797 11.1832C20.6979 12.2823 18.9159 12.2823 17.8168 11.1832C16.7177 10.0841 16.7177 8.3021 17.8168 7.203L16.4901 5.87628L5.87628 16.4901L7.203 17.8168ZM11.8465 11.8465C11.4802 12.2129 11.486 12.8127 11.8595 13.1862L15.8138 17.1405C16.1873 17.514 16.7871 17.5198 17.1535 17.1535C17.5198 16.7871 17.514 16.1873 17.1405 15.8138L13.1862 11.8595C12.8127 11.486 12.2129 11.4802 11.8465 11.8465Z" fill="white"/>
</mask>
<g mask="url(#mask0_0_714)">
<rect width="30" height="30" fill="#0880AE"/>
</g>
</svg>
