<svg width="30" height="30" viewBox="0 0 30 30" fill="none" xmlns="http://www.w3.org/2000/svg">
<path fill-rule="evenodd" clip-rule="evenodd" d="M10.2929 11.7071C10.6834 12.0976 11.3166 12.0976 11.7071 11.7071L14 9.41421V18.0015C14 18.5529 14.4477 19 15 19C15.5523 19 16 18.5529 16 18.0015V9.41421L18.2929 11.7071C18.6834 12.0976 19.3166 12.0976 19.7071 11.7071C20.0976 11.3166 20.0976 10.6834 19.7071 10.2929L15.7071 6.29289C15.3166 5.90237 14.6834 5.90237 14.2929 6.29289L10.2929 10.2929C9.90237 10.6834 9.90237 11.3166 10.2929 11.7071ZM23 16C23 15.4477 23.4477 15 24 15C24.5523 15 25 15.4477 25 16V23C25 23.5523 24.5523 24 24 24H6C5.44772 24 5 23.5523 5 23V16C5 15.4477 5.44772 15 6 15C6.55228 15 7 15.4477 7 16V22H23V16Z" fill="black"/>
<mask id="mask0_0_715" style="mask-type:alpha" maskUnits="userSpaceOnUse" x="5" y="6" width="20" height="18">
<path fill-rule="evenodd" clip-rule="evenodd" d="M10.2929 11.7071C10.6834 12.0976 11.3166 12.0976 11.7071 11.7071L14 9.41421V18.0015C14 18.5529 14.4477 19 15 19C15.5523 19 16 18.5529 16 18.0015V9.41421L18.2929 11.7071C18.6834 12.0976 19.3166 12.0976 19.7071 11.7071C20.0976 11.3166 20.0976 10.6834 19.7071 10.2929L15.7071 6.29289C15.3166 5.90237 14.6834 5.90237 14.2929 6.29289L10.2929 10.2929C9.90237 10.6834 9.90237 11.3166 10.2929 11.7071ZM23 16C23 15.4477 23.4477 15 24 15C24.5523 15 25 15.4477 25 16V23C25 23.5523 24.5523 24 24 24H6C5.44772 24 5 23.5523 5 23V16C5 15.4477 5.44772 15 6 15C6.55228 15 7 15.4477 7 16V22H23V16Z" fill="white"/>
</mask>
<g mask="url(#mask0_0_715)">
<rect width="30" height="30" fill="#0880AE"/>
</g>
</svg>
