<svg width="30" height="30" viewBox="0 0 30 30" fill="none" xmlns="http://www.w3.org/2000/svg">
<path fill-rule="evenodd" clip-rule="evenodd" d="M19.7079 12.0407L18.2937 10.6264L21.5582 7.36201C22.6567 6.26348 22.0764 4.3596 20.5383 4.01585C17.9258 3.43198 15.2003 4.1843 13.2984 6.08624C11.2442 8.14044 10.5576 11.1281 11.3631 13.85L4.29993 20.9131C3.53457 21.6785 3.54729 22.9321 4.32834 23.7131L6.44966 25.8345C7.23071 26.6155 8.48432 26.6282 9.24968 25.8629L16.0567 19.0558C18.9527 20.2533 22.3412 19.6708 24.6121 17.3999C26.7102 15.3018 27.3988 12.2112 26.4727 9.39903C26.0063 7.983 24.2164 7.53223 23.179 8.56958L19.7079 12.0407ZM14.7126 7.50045C16.1766 6.03644 18.2361 5.52141 20.1439 5.94779L16.1866 9.90513C15.8039 10.2878 15.8103 10.9146 16.2008 11.3051L19.0292 14.1336C19.4198 14.5241 20.0466 14.5304 20.4293 14.1478L24.5932 9.98379C25.271 12.0417 24.8092 14.3744 23.1979 15.9857C21.1673 18.0163 17.9913 18.2213 15.6632 16.6209L7.83547 24.4487L5.71415 22.3273L13.6773 14.3642C12.5311 12.1254 12.8712 9.34188 14.7126 7.50045Z" fill="black"/>
<mask id="mask0_0_720" style="mask-type:alpha" maskUnits="userSpaceOnUse" x="3" y="3" width="24" height="24">
<path fill-rule="evenodd" clip-rule="evenodd" d="M19.7079 12.0407L18.2937 10.6264L21.5582 7.36201C22.6567 6.26348 22.0764 4.3596 20.5383 4.01585C17.9258 3.43198 15.2003 4.1843 13.2984 6.08624C11.2442 8.14044 10.5576 11.1281 11.3631 13.85L4.29993 20.9131C3.53457 21.6785 3.54729 22.9321 4.32834 23.7131L6.44966 25.8345C7.23071 26.6155 8.48432 26.6282 9.24968 25.8629L16.0567 19.0558C18.9527 20.2533 22.3412 19.6708 24.6121 17.3999C26.7102 15.3018 27.3988 12.2112 26.4727 9.39903C26.0063 7.983 24.2164 7.53223 23.179 8.56958L19.7079 12.0407ZM14.7126 7.50045C16.1766 6.03644 18.2361 5.52141 20.1439 5.94779L16.1866 9.90513C15.8039 10.2878 15.8103 10.9146 16.2008 11.3051L19.0292 14.1336C19.4198 14.5241 20.0466 14.5304 20.4293 14.1478L24.5932 9.98379C25.271 12.0417 24.8092 14.3744 23.1979 15.9857C21.1673 18.0163 17.9913 18.2213 15.6632 16.6209L7.83547 24.4487L5.71415 22.3273L13.6773 14.3642C12.5311 12.1254 12.8712 9.34188 14.7126 7.50045Z" fill="white"/>
</mask>
<g mask="url(#mask0_0_720)">
<rect width="30" height="30" fill="#0880AE"/>
</g>
</svg>
